<?xml version='1.0' encoding='UTF-8'?>
<svg x="0px" y="0px" viewBox="0 0 32 32" version="1.1" xmlns="http://www.w3.org/2000/svg" xmlns:xlink="http://www.w3.org/1999/xlink" xml:space="preserve" id="Layer_1">
  <g id="Layer_2">
    <g id="Save_and_close">
      <polygon points="30,2 2,2 2,30 2,30 6,30 6,20 26,20 26,30 30,30   " fill="#1177D7" class="Blue" />
      <rect x="6" y="2" width="20" height="14" rx="0" ry="0" fill="#FFFFFF" class="White" />
      <path d="M6,20v10h20V20H6z M24,28h-4v-6h4V28z" fill="#727272" class="Black" />
      <g opacity="0.5" class="st0">
        <rect x="8" y="4" width="8" height="2" rx="0" ry="0" fill="#727272" opacity="0.5" class="Black" />
        <rect x="8" y="8" width="8" height="2" rx="0" ry="0" fill="#727272" opacity="0.5" class="Black" />
      </g>
      <path d="M25,0c3.9,0,7,3.1,7,7s-3.1,7-7,7s-7-3.1-7-7S21.1,0,25,0z" fill="#D11C1C" class="Red" />
      <path d="M28.8,9.3l-1.4,1.4L25,8.4l-2.3,2.3l-1.4-1.4L23.6,7l-2.3-2.3l1.4-1.4L25,5.6l2.3-2.3l1.4,1.4L26.4,7    L28.8,9.3z" fill="#FFFFFF" class="White" />
    </g>
  </g>
</svg>